<?xml version="1.0" encoding="UTF-8"?>
<svg xmlns="http://www.w3.org/2000/svg" viewBox="0 0 649.14 176.58">
  <defs>
    <style>.cls-1{fill:#badcdd;}</style>
  </defs>
  <title>VeryGoodLife logo final</title>
  <g id="Layer_2" data-name="Layer 2">
    <g id="Layer_1-2" data-name="Layer 1">
      <g id="Layer_2-2" data-name="Layer 2">
        <g id="Layer_1-2-2" data-name="Layer 1-2">
          <path class="cls-1" d="M11.2,134.19c-2.4,0-4.27-1.34-5.6-4a45.65,45.65,0,0,1-2.4-7.4A156,156,0,0,1,0,90.39q0-7.62,2.8-24.8Q7.42,40.18,11,27.19a39.19,39.19,0,0,1,2-5,.93.93,0,0,1,.7-.5,1.33,1.33,0,0,1,.9.1A1.4,1.4,0,0,1,15.8,23a5.73,5.73,0,0,1,.2,1.8,10.47,10.47,0,0,1-.2,2.3c-.13.6-.27,1.17-.4,1.7Q10.81,46.59,6.2,77.59a94.14,94.14,0,0,0-1.2,15q0,4,.8,12.4a117.21,117.21,0,0,0,3,18.8,20,20,0,0,0,1.5,3.8,2,2,0,0,0,1.7,1.2q1.62,0,4.2-2.4a60.76,60.76,0,0,0,10.2-10.2A168.77,168.77,0,0,0,37,100.39q12.6-21.79,22.6-42,3.81-7.8,6.9-16t7.3-20.6l3-8.6A13.4,13.4,0,0,1,79,9.79a1.8,1.8,0,0,1,2.4-.2,2.05,2.05,0,0,1,1.2,2,5.73,5.73,0,0,1-.6,2.6l-3,8.6a100.57,100.57,0,0,0-3.4,10,223.92,223.92,0,0,1-11.7,28.7Q57,75.59,46.6,94.19q-7.59,13.2-12,19.4a93,93,0,0,1-12.8,15,27.56,27.56,0,0,1-7,4.8A8.13,8.13,0,0,1,11.2,134.19Z"></path>
          <path class="cls-1" d="M71.5,111.89a9.71,9.71,0,0,1-3.7-5.5,17.78,17.78,0,0,1-1.2-6.8,29,29,0,0,1,1.4-9.2q3.81-12,11.6-19.4a29.82,29.82,0,0,1,5.7-4.3,12.26,12.26,0,0,1,6.1-1.5,5.85,5.85,0,0,1,4.7,2,6.74,6.74,0,0,1,1.3,5.4,18.22,18.22,0,0,1-5,10.4,69.24,69.24,0,0,1-9.2,8.5,19.46,19.46,0,0,1-9.6,3.7c-.8.13-1.34.73-1.6,1.8a10.71,10.71,0,0,0-.2,2.4,11.48,11.48,0,0,0,.8,4.6q1.2,5.6,6.8,4.6a41.76,41.76,0,0,0,8.6-3.2,72.34,72.34,0,0,0,14.4-10.2l14.2-13.4,3.8-3.6a2,2,0,0,1,2.83-.18,1.45,1.45,0,0,1,.17.18,2.4,2.4,0,0,1,.6,3,8.8,8.8,0,0,1-1.6,2q-12,12.18-20,18.8a67.59,67.59,0,0,1-14.2,9.2,26.74,26.74,0,0,1-10.2,2.6A11.07,11.07,0,0,1,71.5,111.89ZM90.2,77A9.18,9.18,0,0,0,92,72.4c-.14-1.33-.74-1.87-1.8-1.6a8.13,8.13,0,0,0-3.6,1.4q-8,5.19-12,15.8c0,.67.13,1,.4,1,.66.27,1.06.33,1.2.2Q86.4,83.79,90.2,77Z"></path>
          <path class="cls-1" d="M110.2,122.39c0-.53,0-1.33-.1-2.4a12.47,12.47,0,0,1,.1-2.8q2.61-18.4,8.8-32l6.4-15a8.14,8.14,0,0,0,.7-1.3,7.11,7.11,0,0,1,.9-1.5,2.27,2.27,0,0,1,2.4-.6c1.2.4,1.66,1.07,1.4,2a11.53,11.53,0,0,1-1,4.4q-1.61,4-5.2,12a138.56,138.56,0,0,0-6.4,18.4,16.51,16.51,0,0,0-.8,4,5.43,5.43,0,0,0,.6,2.4h-.2l.2.2,7.8-15.8a54,54,0,0,1,9.6-13,27.42,27.42,0,0,1,4.6-3.8,5.33,5.33,0,0,1,2.4-.6,4.24,4.24,0,0,1,3.8,2.4,14.72,14.72,0,0,1,1.1,2.3,15.63,15.63,0,0,0,1.1,2.3q2.19,3.6,4.8,3.6a7.93,7.93,0,0,0,3.4-1A52.27,52.27,0,0,0,167.2,79a11.71,11.71,0,0,1,2.6-2,1.15,1.15,0,0,1,.8-.2,2.65,2.65,0,0,1,1.6.6,2,2,0,0,1,.6,2.4,7,7,0,0,1-1.8,2.6,44.31,44.31,0,0,1-13.2,9.4,10.15,10.15,0,0,1-4.6,1,9.74,9.74,0,0,1-8.2-4.4l-3-4.8a4.45,4.45,0,0,0-3.4,2,52.72,52.72,0,0,0-9,12.8l-3.8,7.6q-.81,2-5.8,11.8a50.49,50.49,0,0,1-3.6,6.2,3.16,3.16,0,0,1-2.8,1.6Q110.6,125.59,110.2,122.39Z"></path>
          <path class="cls-1" d="M171.59,115a7.89,7.89,0,0,1-4.9-1.6,8.31,8.31,0,0,1-2.9-4.2q-.78-2-.8-7.2,2-15.81,5.8-25.2a17.51,17.51,0,0,1,3-5,2.31,2.31,0,0,1,3-.2,1.49,1.49,0,0,1,.9.9,1.72,1.72,0,0,1,.1,1.3l-1.2,3a51.75,51.75,0,0,0-3.9,11.3q-1.29,5.9-2.5,13.9v1.4a25.65,25.65,0,0,0,.4,3.8,2.83,2.83,0,0,0,1.4,2.1,3.17,3.17,0,0,0,2.6.3,10,10,0,0,0,3.7-1.1,24,24,0,0,0,3.9-2.7A115.51,115.51,0,0,0,195,91.19l5.4-6.4q2.4-3.21,3.8-4.8a19.66,19.66,0,0,1,2.8-2.6c.67-.67,1.47-.6,2.4.2a2,2,0,0,1,.8,2.4,4.86,4.86,0,0,1-1.2,2.2q-6.6,8.58-11.7,14.4a99.34,99.34,0,0,1-11.1,10.8,46,46,0,0,1-6.6,5,18.74,18.74,0,0,1-6,2.4A8.47,8.47,0,0,1,171.59,115Zm4.8-51a2.41,2.41,0,0,1-2-1.1,5.83,5.83,0,0,1-1-2.7q0-3.6,3.6-3.6a4.12,4.12,0,0,1,2.7.9,3.44,3.44,0,0,1,1.3,2.3,4.46,4.46,0,0,1-4.2,4.2Z"></path>
          <path class="cls-1" d="M333.33,81.93a3.55,3.55,0,0,1-.6,1.8l-1.8,1.8-4.4,4q-14.19,12.39-36.8,35.4a23.81,23.81,0,0,0-6.2,9.8,134.28,134.28,0,0,1-7.8,20,55.45,55.45,0,0,1-7.4,12.4,27.67,27.67,0,0,1-6.6,6.4,11.46,11.46,0,0,1-4.8,2,6.36,6.36,0,0,1-4.9-1,5.4,5.4,0,0,1-1.7-4.4,14.79,14.79,0,0,1,2.4-8.4q2.61-4.2,5.8-8.8a262.87,262.87,0,0,1,19-22.6,20.17,20.17,0,0,0,4.61-8.4q5.82-21.79,12.8-56.8a11,11,0,0,0,.4-2.6,6.11,6.11,0,0,0-.4-1.8,2.79,2.79,0,0,0-1.9.6,6,6,0,0,0-1.2,1.4,6.49,6.49,0,0,1-.9,1.2l-20.4,24a260.63,260.63,0,0,1-27.2,27.2,81.68,81.68,0,0,1-11.8,8.4q-5.58,3.39-10,3.4a9.2,9.2,0,0,1-8-4.6,20.51,20.51,0,0,1-3.2-11.6,41,41,0,0,1,1.4-9.8q9.21-38.4,31.2-65.8a86.68,86.68,0,0,1,16.2-16q7.2-5.4,13.4-6.6a32.51,32.51,0,0,1,5.8-.8q8.22,0,10.6,8a15.34,15.34,0,0,1,1,6,26.38,26.38,0,0,1-.6,5.6,70.66,70.66,0,0,1-2.4,8.8,132.51,132.51,0,0,1-11.8,23.39,8.13,8.13,0,0,1-3.4,3.8,3.18,3.18,0,0,1-1.8-.2,1.38,1.38,0,0,1-.6-1.8l2-3.4a143.44,143.44,0,0,0,9.8-19.8,88.29,88.29,0,0,0,3-10,32.24,32.24,0,0,0,.6-7.2q-.6-8-6.6-8a13.61,13.61,0,0,0-4,.6,33,33,0,0,0-13.2,6.8,85.61,85.61,0,0,0-14.2,14.4q-21,26.4-30,63.4c-.53,2.93-.87,5.07-1,6.4l-.2,2.2a16.9,16.9,0,0,0,.4,3q1.2,7.8,6,7.8a12.15,12.15,0,0,0,5.8-1.8,68.8,68.8,0,0,0,10.8-7.4,189.93,189.93,0,0,0,25.6-25.2l15.59-18.19q5-6.2,15.4-18.2a39.85,39.85,0,0,1,3.8-4.4,3.37,3.37,0,0,1,1.6-.6,5.87,5.87,0,0,1,1.6.4c.67.27,1,1,1,2.2a23.13,23.13,0,0,1-.4,3.2l-1.4,7.4q-.78,4.4-4.3,21.7t-7.1,32.3c-.53,1.47-.6,2.53-.2,3.2h.6c.53,0,1.27-.47,2.2-1.4q14.61-15.21,34.61-32.8a13.62,13.62,0,0,1,2-1.8,3.55,3.55,0,0,1,1.8-.6,2.85,2.85,0,0,1,1.8.6A2.4,2.4,0,0,1,333.33,81.93Zm-59,62.2a2.71,2.71,0,0,0-.8-2,9.13,9.13,0,0,1-1.8,2.8c-.93,1.06-1.67,1.93-2.2,2.6a22.2,22.2,0,0,1-2.8,3.4l-7.4,10c-2.13,2.93-3.27,5.46-3.4,7.6a1.4,1.4,0,0,0,.4,1,.89.89,0,0,0,1.2.2,21.32,21.32,0,0,0,6-4.8,71.5,71.5,0,0,0,10.4-19.4,3.22,3.22,0,0,0,.4-1.41Z"></path>
          <path class="cls-1" d="M331.73,113.12a9.84,9.84,0,0,1-6.4-2.3,10.39,10.39,0,0,1-3.6-6.1,18.2,18.2,0,0,1-.4-5.2,37.94,37.94,0,0,1,9.4-21.8,12.07,12.07,0,0,1,5.6-4.4,5.61,5.61,0,0,1,2.6-.6c1.33.27,2.06.93,2.2,2v.8q0,1.59-1.2,1.8a8.62,8.62,0,0,0-4.6,2.2,33.1,33.1,0,0,0-4,5.4,38.47,38.47,0,0,0-4,10.2,18.61,18.61,0,0,0-.8,5.8,8.83,8.83,0,0,0,1.3,5.2,4.5,4.5,0,0,0,3.9,1.8,6.07,6.07,0,0,0,3.2-1,7.67,7.67,0,0,0,2.6-2.8,15.2,15.2,0,0,0,2.4-7.2,11.25,11.25,0,0,0-1.8-5.8,26.67,26.67,0,0,1-2-4v-.6a2.14,2.14,0,0,1,.6-1.6,2.79,2.79,0,0,1,1.4-.8h6.2q3.6.41,11.2-1.8l11-4,3.2-.8a3,3,0,0,1,2.6,1.6,2.31,2.31,0,0,1-1.6,3.2l-5.4,2c-.8.27-3,1-6.7,2.3a50.85,50.85,0,0,1-10.9,2.5,8.62,8.62,0,0,0-2.6.5,1.31,1.31,0,0,0-.6,1.3,10.92,10.92,0,0,0,.2,2.2,24,24,0,0,1,.4,3.6,19,19,0,0,1-1.8,7.8,16.24,16.24,0,0,1-6,7A11.26,11.26,0,0,1,331.73,113.12Z"></path>
          <path class="cls-1" d="M370.93,113.12a9.84,9.84,0,0,1-6.4-2.3,10.39,10.39,0,0,1-3.6-6.1,18.2,18.2,0,0,1-.4-5.2,37.94,37.94,0,0,1,9.4-21.8,12.07,12.07,0,0,1,5.6-4.4,5.61,5.61,0,0,1,2.6-.6c1.33.27,2.06.93,2.2,2v.8q0,1.59-1.2,1.8a8.62,8.62,0,0,0-4.6,2.2,33.1,33.1,0,0,0-4,5.4,38.47,38.47,0,0,0-4,10.2,18.61,18.61,0,0,0-.8,5.8,8.83,8.83,0,0,0,1.3,5.2,4.5,4.5,0,0,0,3.9,1.8,6.07,6.07,0,0,0,3.2-1,7.67,7.67,0,0,0,2.6-2.8,15.17,15.17,0,0,0,2.41-7.19,11.25,11.25,0,0,0-1.8-5.8,26.67,26.67,0,0,1-2-4v-.6a2.14,2.14,0,0,1,.6-1.6,2.79,2.79,0,0,1,1.4-.8h6.2q3.6.41,11.2-1.8l11-4,3.2-.8a3,3,0,0,1,2.6,1.6,2.31,2.31,0,0,1-1.6,3.2l-5.4,2c-.8.27-3,1-6.7,2.3a50.85,50.85,0,0,1-10.9,2.5,8.62,8.62,0,0,0-2.6.5,1.31,1.31,0,0,0-.6,1.3,10.92,10.92,0,0,0,.2,2.2,24,24,0,0,1,.4,3.6,19,19,0,0,1-1.8,7.8,16.24,16.24,0,0,1-6,7A11.28,11.28,0,0,1,370.93,113.12Z"></path>
          <path class="cls-1" d="M468.73,6.52a15.27,15.27,0,0,1-1.6,5.6,88.55,88.55,0,0,1-9.2,18.8q-6,9.39-11.2,25.8-7.59,25.61-10.2,43.21a187.49,187.49,0,0,0-2.2,25.6c0,2.8.06,4.93.2,6.4a71.6,71.6,0,0,0,2.2,15.4,2.94,2.94,0,0,1,.4,1.2l.2,1.2a2.49,2.49,0,0,1-1.8,2.6,2.27,2.27,0,0,1-1,.2c-1.34,0-2.2-.94-2.6-2.8a82.4,82.4,0,0,1-2.6-18q-.81-21.6,4.8-47.4.8-4,4-16a9,9,0,0,0,.4-4.4v.2a6.36,6.36,0,0,0-2.9,2.6c-.74,1.2-1.3,2.07-1.7,2.6a234.8,234.8,0,0,1-19.2,24.8q-1,1.2-6.4,6.6a11.49,11.49,0,0,1-4,2.4h-.8a3.93,3.93,0,0,1-2.5-.9,3.7,3.7,0,0,1-1.3-2.5,12.18,12.18,0,0,1,.6-3.8,88.73,88.73,0,0,1,11.81-24.81,29,29,0,0,1,6.4-6.4,9.08,9.08,0,0,1,4.6-1.79q2.79,0,5,4.6a3.15,3.15,0,0,0,1.8-1.5,7.21,7.21,0,0,1,.8-1.3l7.8-11.4q8.61-12.81,12-23.2a94.21,94.21,0,0,1,9-20.2,15.08,15.08,0,0,1,4.2-5.8,2.68,2.68,0,0,1,2-.8,2.81,2.81,0,0,1,1.6.4A4,4,0,0,1,468.73,6.52Zm-43.8,66.6a15.07,15.07,0,0,1,1.7-2.4,6.51,6.51,0,0,0,1.5-3,10.16,10.16,0,0,0-2.4-.2,8.2,8.2,0,0,0-5,1.6,22.37,22.37,0,0,0-4.4,4.4,2.13,2.13,0,0,0-.8,1,95.26,95.26,0,0,0-8,16.2l-.4,1.6a4.28,4.28,0,0,0,.6,2.2q12.81-15.21,17.2-21.4Z"></path>
          <path class="cls-1" d="M460.84,137.58a2.68,2.68,0,0,1-2.4-1.2,4.16,4.16,0,0,1-.4-3.2l.6-2.6q4.38-11.61,13.2-39,9.6-29.6,14.6-42.6A355.75,355.75,0,0,1,504,9.58c.13-.27.43-.83.9-1.7a4.36,4.36,0,0,1,1.9-1.9q.39-.41,1.2,0,.78,0,1.2,1.2v.6a5.8,5.8,0,0,1-.6,2.6l-4.8,10a276.17,276.17,0,0,0-12,28.2L488,60q-9.6,27.6-13.2,39.6-3.6,11.2-4.4,13.6l-3.6,10.6-1.6,5a.82.82,0,0,0,.2.5.66.66,0,0,0,.6.3q.39.39,1.2,0,9.18-3.81,25.2-6.4c2.13-.27,3.87-.54,5.2-.8l18.4-3.8,7.22-1.6c1.6-.4,2.47-.6,2.6-.6h.2a2.26,2.26,0,0,1,2,2.49s0,.07,0,.11a2.08,2.08,0,0,1-1.2,2,9.67,9.67,0,0,1-3.8,1.2q-22.39,5.19-34,6.8a74,74,0,0,0-20.6,5.8,40.28,40.28,0,0,1-6,2.6A5,5,0,0,1,460.84,137.58Z"></path>
          <path class="cls-1" d="M522.64,115a7.73,7.73,0,0,1-4.9-1.6,8.05,8.05,0,0,1-2.9-4.2c-.54-1.33-.8-3.73-.8-7.2q2-15.8,5.8-25.2a17.33,17.33,0,0,1,3-5,2.33,2.33,0,0,1,3-.2,1.49,1.49,0,0,1,.9.9,1.88,1.88,0,0,1,.1,1.3l-1.2,3a51.59,51.59,0,0,0-3.9,11.3Q520.42,94,519.26,102v1.4a23,23,0,0,0,.4,3.8,2.74,2.74,0,0,0,1.4,2.1,3.16,3.16,0,0,0,2.6.3,9.84,9.84,0,0,0,3.7-1.1,24.66,24.66,0,0,0,3.9-2.7,115.33,115.33,0,0,0,14.8-14.6l5.4-6.4c1.6-2.13,2.86-3.73,3.8-4.8a19.18,19.18,0,0,1,2.8-2.6c.67-.67,1.47-.6,2.4.2a2,2,0,0,1,.8,2.4,5,5,0,0,1-1.2,2.2q-6.6,8.59-11.7,14.4a99.29,99.29,0,0,1-11.1,10.8,45.63,45.63,0,0,1-6.6,5,18.7,18.7,0,0,1-6,2.4A8.15,8.15,0,0,1,522.64,115Zm4.8-51a2.35,2.35,0,0,1-2-1.1,5.55,5.55,0,0,1-1-2.7q0-3.6,3.6-3.6a4.15,4.15,0,0,1,2.7.9,3.57,3.57,0,0,1,1.3,2.3,4.45,4.45,0,0,1-4.2,4.2Z"></path>
          <path class="cls-1" d="M554.44,176.58c-1.87,0-3.47-1.06-4.8-3.2a28.24,28.24,0,0,1-3.4-9.8,87.26,87.26,0,0,1-1-13.8,238.86,238.86,0,0,1,5.6-42q6.6-29.81,21-65.2A178,178,0,0,1,588,11.18a40.48,40.48,0,0,1,7.4-9.2q3-2.58,5.2-1.8a3.79,3.79,0,0,1,2.2,3.8,7.43,7.43,0,0,1-.2,2,35.55,35.55,0,0,1-1.2,5.6,135.64,135.64,0,0,1-6.2,16.6q-12.4,27.41-25.6,47l-6.2,10a30.48,30.48,0,0,0-2.4,4.6c-.53,1.2-.47,2,.2,2.4a2.85,2.85,0,0,0,1.8.2,62.6,62.6,0,0,0,10.8-4.6l21.6-11q1.6-.8,4.8-2l.6-.2a2.62,2.62,0,0,1,1.5.5,2.22,2.22,0,0,1,.9,1.3l.2.8a2.08,2.08,0,0,1-1.2,2l-1.8.9a21.92,21.92,0,0,0-2.2,1.3Q583,89,575.44,93a104.5,104.5,0,0,1-10.8,4.6,18.8,18.8,0,0,0-5,1.8,2.09,2.09,0,0,0-1,2.2l1.2,3a91.44,91.44,0,0,1,6.42,33.4c0,2.8-.07,4.94-.2,6.4,0,.94-.14,3.2-.4,6.8a74.5,74.5,0,0,1-1.4,10,40.5,40.5,0,0,1-2,7.6,13.59,13.59,0,0,1-3.4,5.6A6.34,6.34,0,0,1,554.44,176.58Zm.4-6.4a1.28,1.28,0,0,0,1.2-.8q2.4-3.21,3.4-9.8A141.93,141.93,0,0,0,561,139l-.2-6.6a69.07,69.07,0,0,0-3-17.4,5,5,0,0,0-2.2-3.2,13.57,13.57,0,0,1-.6,1.8,9.45,9.45,0,0,0-.6,2.2l-1,6.8q-1.61,9.6-2,14.4a105.81,105.81,0,0,0-1,14,77,77,0,0,0,.6,9.6,25.34,25.34,0,0,0,2.6,8.8A1.26,1.26,0,0,0,554.84,170.18Zm14-100.8a315.25,315.25,0,0,0,26.8-53.6,17.86,17.86,0,0,1,1-2.6,8.25,8.25,0,0,0,.8-3.2,6.6,6.6,0,0,0-.4-1.8,4.91,4.91,0,0,0-2.5,1.4A8.71,8.71,0,0,0,593,12a11.15,11.15,0,0,1-1.2,2.2,175.62,175.62,0,0,0-12.2,23.1q-5.4,12.3-10.8,27.9a5.2,5.2,0,0,0-.6,2.4,3.48,3.48,0,0,0,.6,1.8c-.13,0-.33-.13-.6-.4v.4Z"></path>
          <path class="cls-1" d="M596.34,111.88a9.55,9.55,0,0,1-3.7-5.5,17.34,17.34,0,0,1-1.2-6.8,28.78,28.78,0,0,1,1.4-9.2q3.78-12,11.6-19.4a29.61,29.61,0,0,1,5.7-4.3,12.47,12.47,0,0,1,6.1-1.5,5.89,5.89,0,0,1,4.7,2,6.84,6.84,0,0,1,1.3,5.4,18.22,18.22,0,0,1-5,10.41,67.93,67.93,0,0,1-9.2,8.5,19.4,19.4,0,0,1-9.6,3.7c-.8.13-1.33.73-1.6,1.8a9.7,9.7,0,0,0-.2,2.4,11.12,11.12,0,0,0,.8,4.6q1.2,5.61,6.8,4.6a40.84,40.84,0,0,0,8.6-3.2,72.56,72.56,0,0,0,14.4-10.21l14.2-13.4,3.8-3.6a2,2,0,0,1,2.82-.17l.18.17a2.41,2.41,0,0,1,.6,3,8.91,8.91,0,0,1-1.6,2q-12,12.21-20,18.81a67.85,67.85,0,0,1-14.2,9.2,26.66,26.66,0,0,1-10.2,2.6A10.94,10.94,0,0,1,596.34,111.88ZM615,77a9.37,9.37,0,0,0,1.8-4.6c-.14-1.33-.73-1.87-1.8-1.6a8,8,0,0,0-3.6,1.4q-8,5.2-12,15.8c0,.67.13,1,.4,1,.66.27,1.07.33,1.2.2Q611.26,83.79,615,77Z"></path>
        </g>
      </g>
    </g>
  </g>
</svg>
