<svg xmlns="http://www.w3.org/2000/svg" viewBox="0 0 3792.3 862.75"><defs><style>.cls-1{fill:#ff4081;}.cls-2{fill:#00b2ff;}</style></defs><title>Asset 41</title><g id="Layer_2" data-name="Layer 2"><g id="Layer_2-2" data-name="Layer 2"><rect class="cls-1" y="62.75" width="60" height="790"/><rect class="cls-1" x="365" y="437.75" width="60" height="790" transform="translate(-437.75 1227.75) rotate(-90)"/><rect class="cls-2" x="3732.3" width="60" height="790"/><rect class="cls-2" x="3362.11" y="-364.8" width="60" height="789.61" transform="translate(3362.11 3422.11) rotate(-90)"/><path d="M629.42,230.64q15.08,0,23,8.19t7.87,23.27V632.18q0,19.68-11.48,28.85t-30.15,9.18h-6.89a51.07,51.07,0,0,1-27.37-7.38q-12-7.37-25.4-23.43L378.33,427.31V635.46q0,15.09-8.36,23.28t-23.43,8.19H291.8q-15.09,0-23.44-8.19T260,635.46V265.38q0-19.33,11.8-28.68t30.49-9.34h6.88a52,52,0,0,1,27.53,7.37q12.14,7.38,25.57,23.44L542.56,470.25V262.1q0-15.08,8.36-23.27t23.44-8.19Z"/><path d="M908.05,675.78q-81.3,0-134.4-50.32T720.55,499.1q0-76.05,53.1-126.37t134.4-50.31q53.76,0,96.54,22.94t66.7,63.27q23.93,40.32,23.93,90.47t-23.93,90.47q-23.93,40.32-66.7,63.27T908.05,675.78ZM855.77,554.5q20.81,22,52.28,22t52-22q20.47-22,20.48-55.4T960,443.7q-20.49-22-52-22t-52.28,22Q835,465.68,835,499.1T855.77,554.5Z"/><path d="M1389.91,330q10.81,3.6,15.57,9.67t1.15,19.17l-12.79,50.48q-7.54,26.24-28.19,18-22.62-6.88-35.07-6.88-29.17,0-45.07,17.7t-15.9,48.19v149.8q0,14.43-7.87,22.62t-22.29,8.19h-55.72q-14.43,0-22.29-8.19t-7.87-22.62V358.8q0-14.42,7.87-22.61t22.29-8.2h35.4q14.41,0,22.45,8.2t8,22.61v16.07q37.7-52.46,91.79-52.45A156.35,156.35,0,0,1,1389.91,330Z"/><path d="M1709.51,621.37a20.52,20.52,0,0,1,1.31,15.73,19.4,19.4,0,0,1-4.26,6.07c-2.19,2.29-3.77,3.88-4.75,4.75s-2.9,2.29-5.74,4.26q-33.1,23.6-85.23,23.6a154.07,154.07,0,0,1-49-7.7A132.86,132.86,0,0,1,1520,645.3q-18.68-15.07-29.66-40.81t-11-59.17V412.56h-29.5q-14.76,0-23-8.19t-8.19-22.62V358.8q0-15.07,8-22.94T1449.9,328h29.5V250q0-13.77,7.7-20.66t23.11-10.16l53.76-9.5q14.41-3,22.62,5.73t8.19,24.42V328h66.54q14.76,0,22.79,8t8,22.78v22.95q0,14.43-8.2,22.62t-22.62,8.19h-66.54V533.19q0,22.95,10.33,33.44t27.37,10.48q11.79,0,27.53-9.5,20-13.11,30.82,10.16Z"/><path d="M1951.75,322.42q61.95,0,100.8,40.15t38.84,106.37V636.12q0,14.75-8,22.78t-22.78,8h-55.07q-14.43,0-22.29-8.19t-7.87-22.62V477.47q0-25.25-14.42-40.82t-39.34-15.57q-24.58,0-39.17,15.57t-14.59,40.82V636.12q0,14.43-8.19,22.62T1837,666.93h-54.41q-14.43,0-22.29-8.19t-7.87-22.62V229.32q0-14.08,7.54-21.3t22.62-9.84l53.76-9.83q14.75-2,23.11,6.72t8.35,24.09v132.1Q1903.89,322.43,1951.75,322.42Z"/><path d="M2454.26,433.87a138.42,138.42,0,0,1,58.51,41q23.43,27.87,23.44,69.82,0,56.05-43.6,89.16t-116,33.11H2204.15q-15.08,0-23.44-8.19t-8.35-23.28V262.1q0-15.08,8.35-23.27t23.44-8.19h159q66.54,0,106.37,31.3t39.83,83.42q0,29.5-14.59,52.29T2454.26,433.87ZM2357.89,581.7q29.18,0,45.73-13.6t16.55-36.88q0-22.62-16.55-36.38t-43.77-13.77h-68.5l-.66,100.63ZM2345.1,315.86H2292l-.65,91.78h53.75q24.26,0,38.19-12.29t13.93-33.27q0-21.63-13.93-33.93T2345.1,315.86Z"/><path d="M2625.37,666.93q-14.76,0-22.78-8t-8-22.78V229.32q0-14.08,7.7-21.3t23.11-9.84l54.41-10.49q14.43-2.94,22.95,6.07t8.52,24.75V636.12q0,14.43-8.19,22.62t-22.62,8.19Z"/><path d="M3089.2,328q14.41,0,22.29,8.2t7.87,22.61V636.12q0,14.43-7.87,22.62t-22.29,8.19h-32.78q-14.43,0-22.62-8.19t-8.19-22.62V622.68q-34.43,53.1-100.31,53.1-62.28,0-100.47-37.7t-38.19-99.32v-180q0-14.42,8.2-22.61t22.62-8.2h55.07q14.41,0,22.61,8.2t8.2,22.61V522.05q0,24.57,13.44,39.82t36.06,15.24q23.26,0,36.87-15.4t13.61-40.32V358.8q0-14.42,7.86-22.61t22.29-8.2Z"/><path d="M3290.46,524q3.95,32.46,28.52,50.81t59,18.36q36.71,0,71.78-24.26a68.72,68.72,0,0,1,11.8-7.54,16.51,16.51,0,0,1,10.82-1q5.9,1.3,12.13,7.86l22.95,23.61q17.37,16.71,1.31,34.09-22,23.28-62.28,36.55a260.5,260.5,0,0,1-81.95,13.27q-81,0-133.58-49.66t-52.61-127.68q0-50.15,22.94-90.3t64.25-62.94q41.31-22.79,93.42-22.78,39.34,0,72,12.78t54.9,35.08a164.92,164.92,0,0,1,36.22,55.07A173.91,173.91,0,0,1,3535,491.56q0,18.36-6.39,25.4t-24.42,7Zm65.89-121.61q-26.88,0-44.09,15.41t-20.81,42.28h130.79q-3.93-24.25-18.69-39Q3384.88,402.41,3356.35,402.4Z"/></g></g></svg>