<svg xmlns="http://www.w3.org/2000/svg" viewBox="0 0 2500 2500"><defs><style>.cls-1{fill:#00b2ff;}.cls-2{fill:#fff;}.cls-3{fill:#ff4081;}</style></defs><title>safari-pinned-tab</title><g id="Layer_2" data-name="Layer 2"><g id="Layer_2-2" data-name="Layer 2"><circle cx="1250" cy="1250" r="1250"/><rect class="cls-1" x="1600.81" y="329.64" width="100" height="510.44" transform="translate(1065.95 2235.68) rotate(-90)"/><path class="cls-2" d="M1170.27,540.79q25.31,0,38.52,14.8t13.21,42v668.55q0,35.52-19.26,52.11t-50.64,16.58h-11.55q-25.87,0-46-13.33t-42.65-42.34L748.68,896.08v376q0,27.24-14,42t-39.35,14.8H603.39q-25.32,0-39.36-14.8t-14-42V603.56q0-34.93,19.81-51.82T621,534.87h11.55q25.88,0,46.24,13.32t42.92,42.34l302.71,383.12v-376q0-27.23,14-42t39.35-14.8Z"/><path class="cls-2" d="M1798.65,1537.79q64.77,24,108.06,75.13t43.29,128q0,102.78-80.52,163.49t-214.31,60.7H1336.72q-27.84,0-43.28-15T1278,1907.43V1222.84q0-27.64,15.44-42.68t43.28-15h293.63q122.89,0,196.45,57.41t73.56,153q0,54.11-26.94,95.87T1798.65,1537.79Zm-178,271.07q53.88,0,84.45-24.94t30.58-67.62q0-41.47-30.58-66.72t-80.82-25.24H1497.76l-1.21,184.52Zm-23.61-487.45H1499l-1.21,168.29h99.29q44.79,0,70.53-22.54t25.73-61q0-39.67-25.73-62.21T1597.05,1321.41Z"/><rect class="cls-1" x="1806.03" y="534.87" width="100" height="510.44"/><rect class="cls-3" x="799.16" y="1666.6" width="100" height="510.44" transform="translate(2770.98 1072.66) rotate(90)"/><rect class="cls-3" x="593.94" y="1461.38" width="100" height="510.44" transform="translate(1287.87 3433.2) rotate(180)"/></g></g></svg>