<svg width="145" height="23" viewBox="0 0 145 23" fill="none" xmlns="http://www.w3.org/2000/svg"><g clip-path="url(#clip0_796_4858)"><path d="M53.1248 0.562012H56.4481C56.7179 0.562012 56.9356 0.780143 56.9356 1.05037V4.04561C56.9356 4.31583 56.7179 4.53396 56.4481 4.53396H53.1248C52.8551 4.53396 52.6373 4.31583 52.6373 4.04561V1.05037C52.6373 0.780143 52.8551 0.562012 53.1248 0.562012Z" fill="#172937"></path><path d="M64.0387 26.0444V18.4326C65.1762 19.8781 66.7525 20.6009 68.7644 20.6009C70.1668 20.6009 71.4165 20.2704 72.5134 19.6079C73.6103 18.947 74.4699 18.0159 75.0891 16.8129C75.7082 15.6115 76.0186 14.2067 76.0186 12.5984C76.0186 10.9901 75.7082 9.57546 75.0891 8.35295C74.4683 7.13206 73.6152 6.18954 72.528 5.52863C71.4408 4.86773 70.196 4.53564 68.7936 4.53564C67.7162 4.53564 66.7655 4.74889 65.9433 5.17702C65.121 5.60514 64.4449 6.17489 63.9152 6.88789L63.5479 5.02237C63.5138 4.84656 63.3594 4.71959 63.1806 4.71959H60.2263C59.9565 4.71959 59.7388 4.93772 59.7388 5.20795V26.0428C59.7388 26.313 59.9565 26.5311 60.2263 26.5311H63.5495C63.8193 26.5311 64.0371 26.313 64.0371 26.0428L64.0387 26.0444ZM65.0153 9.28733C65.706 8.46364 66.6306 8.05017 67.7893 8.05017C68.948 8.05017 69.8824 8.46202 70.5942 9.28733C71.3059 10.111 71.6618 11.1952 71.6618 12.5398C71.6618 13.8844 71.3059 14.9783 70.5942 15.8231C69.8824 16.668 68.948 17.0896 67.7893 17.0896C66.6306 17.0896 65.706 16.6729 65.0153 15.8378C64.3247 15.0027 63.9786 13.9039 63.9786 12.5398C63.9786 11.1756 64.3231 10.111 65.0153 9.28733Z" fill="#172937"></path><path d="M91.6599 6.24814C92.8381 7.38926 93.428 9.27106 93.428 11.8984V19.9302C93.428 20.2004 93.2102 20.4186 92.9405 20.4186H89.6172C89.3475 20.4186 89.1297 20.2004 89.1297 19.9302V12.1426C89.1297 9.43547 88.0718 8.0811 85.9592 8.0811C84.8412 8.0811 83.9783 8.45876 83.3672 9.21082C82.7579 9.96452 82.4523 11.0226 82.4523 12.3868V19.9302C82.4523 20.2004 82.2346 20.4186 81.9648 20.4186H78.6416C78.3718 20.4186 78.1541 20.2004 78.1541 19.9302V5.2112C78.1541 4.94098 78.3718 4.72285 78.6416 4.72285H81.5001C81.7357 4.72285 81.9372 4.88889 81.9843 5.12004L82.2996 6.67789C82.8489 6.00559 83.5086 5.48142 84.2805 5.10539C85.0524 4.72936 86.008 4.54053 87.1471 4.54053C88.977 4.54053 90.4801 5.11027 91.6583 6.2514L91.6599 6.24814Z" fill="#172937"></path><path d="M99.192 19.6092C97.9424 18.9483 96.9771 18.0058 96.2962 16.7849C95.6153 15.564 95.2756 14.1592 95.2756 12.5704C95.2756 10.9816 95.6153 9.57839 96.2962 8.35588C96.9771 7.13499 97.9424 6.19247 99.192 5.53156C100.442 4.87066 101.89 4.53857 103.536 4.53857C105.182 4.53857 106.63 4.86903 107.88 5.53156C109.129 6.19247 110.095 7.13499 110.775 8.35588C111.456 9.57677 111.796 10.9816 111.796 12.5704C111.796 14.1592 111.455 15.5884 110.775 16.7995C110.095 18.0106 109.129 18.9483 107.88 19.6092C106.63 20.2717 105.182 20.6022 103.536 20.6022C101.89 20.6022 100.442 20.2717 99.192 19.6092ZM106.388 15.8375C107.088 15.0024 107.439 13.9134 107.439 12.5704C107.439 11.2274 107.088 10.1384 106.388 9.30329C105.686 8.4682 104.737 8.05147 103.537 8.05147C102.338 8.05147 101.418 8.46983 100.718 9.30329C100.016 10.1384 99.6666 11.2274 99.6666 12.5704C99.6666 13.9134 100.018 15.004 100.718 15.8375C101.418 16.6726 102.359 17.0893 103.537 17.0893C104.716 17.0893 105.687 16.6726 106.388 15.8375Z" fill="#172937"></path><path d="M111.942 4.72087H115.833C116.047 4.72087 116.237 4.85761 116.306 5.06109L119.972 16.0198L123.578 5.06271C123.644 4.85761 123.836 4.71924 124.051 4.71924H127.847C128.019 4.71924 128.139 4.89016 128.081 5.05295L122.739 19.9201C122.632 20.218 122.351 20.415 122.036 20.415H117.752C117.437 20.415 117.155 20.2164 117.048 19.9201L111.707 5.05295C111.648 4.89016 111.768 4.71924 111.941 4.71924L111.942 4.72087Z" fill="#172937"></path><path d="M144.182 17.2734V19.93C144.182 20.2003 143.964 20.4184 143.694 20.4184H141.986C140.015 20.4184 139.05 19.5638 139.09 17.8529C138.522 18.7499 137.82 19.4303 136.988 19.8991C136.154 20.3679 135.148 20.6007 133.97 20.6007C132.221 20.6007 130.814 20.1986 129.748 19.3945C128.68 18.5903 128.147 17.4557 128.147 15.989C128.147 14.3205 128.762 13.0312 129.992 12.1261C131.222 11.2211 133.005 10.7669 135.341 10.7669H138.452V10.0034C138.452 9.29043 138.187 8.72556 137.659 8.30883C137.131 7.89211 136.419 7.68211 135.525 7.68211C134.732 7.68211 134.082 7.85466 133.573 8.2014C133.169 8.47813 132.893 8.82975 132.746 9.26113C132.676 9.46461 132.496 9.60623 132.281 9.60623H129.072C128.771 9.60623 128.536 9.33601 128.589 9.03974C128.835 7.70328 129.521 6.64355 130.647 5.86543C131.927 4.97988 133.624 4.53711 135.738 4.53711C137.852 4.53711 139.666 5.02546 140.875 6.00217C142.084 6.97888 142.688 8.39511 142.688 10.2476V15.7758C142.688 16.1632 142.77 16.4269 142.932 16.5702C143.095 16.7134 143.348 16.7834 143.694 16.7834C143.964 16.7834 144.182 17.0015 144.182 17.2718V17.2734ZM138.45 13.6384H135.311C134.415 13.6384 133.72 13.8175 133.222 14.1723C132.724 14.5288 132.475 15.0335 132.475 15.6846C132.475 16.2348 132.683 16.6727 133.101 16.9983C133.517 17.3239 134.08 17.4866 134.792 17.4866C135.91 17.4866 136.794 17.166 137.444 16.5246C138.094 15.8832 138.429 15.0237 138.45 13.9444V13.6384Z" fill="#172937"></path><path d="M52.6373 10.4692V19.9302C52.6373 20.2004 52.8551 20.4186 53.1248 20.4186H56.4481C56.7179 20.4186 56.9356 20.2004 56.9356 19.9302V5.32516C56.9356 5.17215 56.7455 5.10215 56.6464 5.21773L52.9932 9.50548C52.7641 9.77407 52.639 10.1159 52.639 10.4692H52.6373Z" fill="#172937"></path><path d="M37.6202 4.72119H49.9056C50.1754 4.72119 50.3931 4.93932 50.3931 5.20955V7.09785C50.3931 7.45598 50.2648 7.80271 50.0324 8.07456L42.5587 16.7852H50.2713C50.541 16.7852 50.7588 17.0033 50.7588 17.2735V19.9302C50.7588 20.2004 50.541 20.4185 50.2713 20.4185H37.2529C36.9831 20.4185 36.7654 20.2004 36.7654 19.9302V18.0419C36.7654 17.6838 36.8938 17.337 37.1261 17.0652L44.5998 8.35455H37.6185C37.3488 8.35455 37.131 8.13642 37.131 7.8662V5.20955C37.131 4.93932 37.3488 4.72119 37.6185 4.72119H37.6202Z" fill="#172937"></path><path d="M14.0795 1.0909L11.3445 4.3759C11.1495 4.61031 11.3152 4.96844 11.6208 4.96844H20.1247C20.2986 4.96844 20.3945 5.17192 20.2823 5.30703L11.5655 15.7822C11.429 15.9466 11.2259 16.0411 11.0114 16.0411H8.43239C8.25851 16.0411 8.16263 15.8376 8.27476 15.7025L14.4256 8.30553C14.6937 7.98322 14.4646 7.49323 14.0453 7.49323H4.25761C3.79934 7.49323 3.36545 7.69671 3.07132 8.04996L0.33634 11.335C0.141332 11.5694 0.307089 11.9275 0.6126 11.9275H5.21639C5.39028 11.9275 5.48615 12.131 5.37403 12.2661L0.298963 18.3705C-0.394937 19.2056 0.196585 20.4737 1.28212 20.4737H13.2491C13.8601 20.4737 14.4386 20.2018 14.8302 19.7314L23.5097 9.30014C23.6332 9.15201 23.8737 9.23991 23.8737 9.432V17.4996C23.8737 17.8366 24.2946 17.9896 24.5107 17.7308L27.9412 13.6091C28.172 13.3307 28.2987 12.9807 28.2987 12.6193V2.08389C28.2987 1.22764 27.6065 0.53418 26.7517 0.53418H15.2625C14.8042 0.53418 14.3704 0.737661 14.0762 1.0909H14.0795Z" fill="#14EFB6"></path></g><defs><clipPath id="clip0_796_4858"><rect width="144.182" height="26" fill="#172937" transform="translate(0 0.53418)"></rect></clipPath></defs></svg>